# xmcd CD database file
#
# Track frame offsets:
#	150
#	23100
#	45243
#	68193
#
# Disc length: 1202 seconds
#
# Revision: 0
# Processed by: cddbd v1.5.2PL0 Copyright (c) Steve Scherf et al.
# Submitted via: CD2WAV32(JP) R3.22
#
DISCID=2804b004
DTITLE=石川智晶 - 1／2
DYEAR=2007
DGENRE=Anime
TTITLE0=1/2
TTITLE1=砂の上のドルフィン
TTITLE2=1/2 (without vocal)
TTITLE3=砂の上のドルフィン (without vocal)
EXTD=
EXTT0=「逮捕しちゃうぞフルスロットル」エンディングテーマ
EXTT1=
EXTT2=
EXTT3=
PLAYORDER=
